<?xml version="1.0" encoding="iso-8859-1"?>
<!-- Generator: Adobe Illustrator 19.0.0, SVG Export Plug-In . SVG Version: 6.00 Build 0)  -->
<svg xmlns="http://www.w3.org/2000/svg" xmlns:xlink="http://www.w3.org/1999/xlink" version="1.1" id="Capa_1" x="0px" y="0px" viewBox="0 0 512 512" style="enable-background:new 0 0 512 512;" xml:space="preserve" width="512px" height="512px">
<g>
	<g>
		<path d="M370.746,190.356V45c0-24.813-20.187-45-45-45s-45,20.187-45,45v49.57c-24.851-8.811-51.611,5.65-58.414,30.611    c-10.17-4.048-21.387-4.218-31.586-0.601V75c0-24.813-20.187-45-45-45c-24.813,0-45,20.187-45,45v204.614    c0,6.126,0.753,12.245,2.239,18.19l20.933,83.73c4.699,18.799,18.957,33.124,36.828,38.332V497c0,8.284,6.716,15,15,15h150    c8.284,0,15-6.716,15-15v-77.116c17.838-5.131,32.399-19.18,37.664-37.609l29.906-104.671    C418.6,241.612,400.883,205.988,370.746,190.356z M310.746,45c0-8.271,6.729-15,15-15s15,6.729,15,15v137c-11.273,0-18.734,0-30,0    V45z M250.746,167v-30c0-8.271,6.729-15,15-15s15,6.729,15,15v45c-15.706,0-21.098-0.577-30,2.58V167z M190.746,167    c0-8.271,6.729-15,15-15s15,6.729,15,15v30c0,8.271-6.729,15-15,15s-15-6.729-15-15V167z M379.471,269.362l-29.906,104.672    C346.542,384.612,336.748,392,325.746,392c-8.284,0-15,6.716-15,15v75h-120v-75c0-8.278-6.716-15-15-15    c-10.768,0-20.112-7.296-22.725-17.742l-20.932-83.729c-0.892-3.567-1.344-7.239-1.344-10.915V75c0-8.271,6.729-15,15-15    s15,6.729,15,15c0,3.178,0,99.165,0,122c0,24.813,20.187,45,45,45c5.856,0,11.449-1.137,16.586-3.181    c2.989,10.968,10.03,20.275,19.411,26.216c-12.986,13.491-20.997,31.805-20.997,51.965c0,8.284,6.716,15,15,15s15-6.716,15-15    c0-24.813,20.187-45,45-45h30c8.284,0,15-6.716,15-15s-6.716-15-15-15c-6.359,0-53.641,0-60,0c-8.271,0-15-6.729-15-15    s6.729-15,15-15c9.166,0,59.921,0,70.456,0C366.114,212,387.693,240.587,379.471,269.362z" fill="#FFFFFF"/>
	</g>
</g>
<g>
</g>
<g>
</g>
<g>
</g>
<g>
</g>
<g>
</g>
<g>
</g>
<g>
</g>
<g>
</g>
<g>
</g>
<g>
</g>
<g>
</g>
<g>
</g>
<g>
</g>
<g>
</g>
<g>
</g>
</svg>
